ply
format ascii 1.0
comment SOLIDWORKS generated,length unit = millimeters
element vertex 18
property float x
property float y
property float z
element face 32
property list uchar int vertex_indices
end_header
-0.0104795 0.0161016 0.0189882 
-0.0103872 0.00253418 0.000131696 
-0.0104013 0.0263094 0.00016651 
-0.0103889 0.0252203 0.0191876 
-0.00862294 -5.68019e-05 0.0509528 
-0.00884117 0.0139176 0.0505894 
0.01036 0.0264034 0.000154629 
0.0104486 0.0025833 0.000146801 
-0.0087304 -2.35252e-05 0.0361648 
0.0104005 0.0252534 0.0190366 
0.00583983 0.0142743 0.0538035 
-0.00527792 0.0142931 0.053849 
-0.00777838 0.0142182 0.0523659 
-0.00548142 -9.11208e-05 0.0537247 
0.0104948 0.0151026 0.0184356 
0.00869277 -0.000132643 0.0501662 
0.00861608 0.0139887 0.0513279 
0.00613802 -2.06026e-05 0.0535776 
3 1 0 2
3 2 0 3
3 1 4 0
3 0 5 3
3 4 5 0
3 6 7 1
3 7 8 1
3 1 2 6
3 4 1 8
3 6 2 3
3 9 3 10
3 9 6 3
3 3 11 10
3 12 11 3
3 5 12 3
3 4 13 12
3 13 4 8
3 12 5 4
3 9 7 6
3 14 15 7
3 7 15 8
3 9 14 7
3 15 13 8
3 16 14 9
3 9 10 16
3 10 13 17
3 11 13 10
3 17 16 10
3 12 13 11
3 15 17 13
3 16 15 14
3 17 15 16
