ply
format ascii 1.0
comment SOLIDWORKS generated,length unit = millimeters
element vertex 318
property float x
property float y
property float z
element face 380
property list uchar int vertex_indices
end_header
-0.0105009 0.0170357 0.0177144 
-0.0103791 0.0127922 0.018852 
-0.010375 0.0115769 0.0177727 
-0.0104031 0.011445 0.00479895 
-0.0104023 0.017414 0.0047695 
-0.0103332 0.0162148 0.0188275 
-0.0101936 0.0173503 0.0176809 
-0.0103283 0.0174109 0.00631153 
0.0103279 0.0160562 0.0188734 
0.0103827 0.0126119 0.0187999 
0.010409 0.0116169 0.0177185 
0.0103978 0.0114066 0.0047518 
-0.0104977 0.0106681 0.00380844 
0.0102126 0.0102814 0.00401753 
-0.01021 0.0102579 0.00401509 
0.0102063 0.0174419 0.00510973 
-0.0104054 0.0183873 0.00396413 
0.0104016 0.0182122 0.00399756 
0.0101982 0.017334 0.0177704 
-0.0101925 0.0173995 0.0192508 
0.0103377 0.0174105 0.00634837 
-0.0103618 0.0253047 0.0061444 
-0.0103889 0.0252203 0.0191876 
-0.0104791 0.017678 0.0193236 
-0.0103068 0.0197041 0.00399995 
0.0103028 0.0196752 0.00399995 
0.0105016 0.0170357 0.0177144 
0.0104986 0.0172323 0.00473028 
0.0104981 0.0106537 0.00379908 
-0.0103381 0.00802857 0.00383842 
-0.0104643 0.00807202 0.00174117 
-0.0104643 0.0207543 0.00174117 
0.00678396 0.00787026 0.0039221 
0.0103388 0.00802857 0.00383842 
-0.00668824 0.00782579 0.00391292 
-0.0102562 0.0207978 0.00392026 
0.0102685 0.0207631 0.00393176 
0.0104585 0.0208026 0.00174504 
0.0101883 0.0173925 0.0192534 
0.00896245 0.0080207 0.0355793 
-0.0090152 0.00804359 0.035742 
0.0103817 0.0252618 0.00611854 
0.0104005 0.0252534 0.0190366 
0.0104797 0.017678 0.0193242 
-0.010293 0.0231656 0.00400901 
-0.00474036 0.0230867 0.00399154 
0.00473672 0.0231127 0.00398993 
-0.00880229 0.0156518 0.0359255 
0.00880373 0.0156678 0.0359094 
-0.00905543 0.015468 0.035708 
0.0102937 0.0231656 0.00400901 
0.010465 0.00807202 0.00174117 
-0.00715524 0.00784361 0.00189996 
-0.0103496 0.00256318 0.00179994 
-0.0103663 0.00252432 0.000133332 
-0.0103905 0.0263041 0.000163633 
-0.0103496 0.0262632 0.00179994 
-0.00710452 0.0209914 0.00189996 
0.00488239 0.0063144 0.00399816 
0.00699282 0.00781292 0.00189996 
0.00515145 0.0061388 0.00189996 
0.00512129 0.00596207 0.00369394 
-0.0050332 0.00596505 0.00387496 
-0.00577796 0.00696319 0.00189996 
-0.00696331 0.0210298 0.00368881 
-0.00656623 0.0208187 0.00399745 
0.00697416 0.0210205 0.00369895 
0.00660258 0.0207953 0.00399715 
0.0103892 0.0262799 0.000133333 
0.0103503 0.0262632 0.0018 
0.00707287 0.0210059 0.00189996 
0.00904995 0.00971586 0.0357358 
0.00900978 0.00812459 0.035845 
0.00905615 0.015468 0.035708 
0.00905627 0.0141088 0.035727 
-0.00874519 0.00941396 0.0360045 
-0.0090555 0.0141045 0.0357282 
-0.0090493 0.00971162 0.0357346 
0.00483882 0.0262517 0.00388461 
-0.00483805 0.0262978 0.00383842 
-0.00555569 0.0221341 0.0037002 
-0.00503147 0.0233402 0.003703 
0.00503069 0.0233486 0.00370061 
0.00555646 0.0221341 0.0037002 
0.00874662 0.0144116 0.0360043 
-0.00874871 0.014412 0.0360046 
0.0103783 0.00253522 0.000152542 
0.0103503 0.00256318 0.00179994 
-0.0050512 0.00564486 0.00189996 
-0.00486112 0.00248241 0.0017615 
0.00486189 0.00248241 0.0017615 
-0.00491309 0.0263151 0.00177884 
0.00490075 0.0263455 0.0017606 
-0.00520581 0.0225414 0.00189996 
-0.00487459 0.00258821 0.00387496 
0.00487536 0.0025382 0.00382495 
0.00520652 0.0225414 0.00189996 
0.00897312 0.0141133 0.0496811 
0.00880241 0.00950849 0.0502025 
0.00874895 0.00941378 0.0360047 
-0.00877935 0.00946134 0.050118 
-0.00346106 0.009426 0.0454551 
-0.00306207 0.00942636 0.0434909 
-0.00195378 0.00941777 0.0421557 
0.000144479 0.00943315 0.0415105 
-0.0089454 0.01411 0.0499603 
-0.0086568 0.0144133 0.0498323 
0.00853771 0.014414 0.0505336 
0.00819713 0.0141149 0.0518529 
0.0023542 0.0094201 0.0475358 
0.00773781 0.00953346 0.0522451 
0.00336742 0.00942016 0.0457962 
0.00316787 0.00942504 0.0437722 
0.00194335 0.00942236 0.0421935 
-0.00256878 0.0094142 0.0472956 
-0.00708413 0.00950426 0.0528214 
-0.00839466 0.0097127 0.0514611 
-2.00269e-06 0.0128052 0.0449938 
-0.00780171 0.0142385 0.0522912 
-0.00533032 0.0143017 0.05381 
0.00480044 0.014331 0.0538316 
0.00654662 0.0142905 0.0532461 
0.00120962 0.00942183 0.0482047 
0.00549108 0.00941229 0.0535577 
0.00553221 0.00971705 0.0538576 
-0.000900074 0.00942343 0.0483673 
-0.00546771 0.00949097 0.0537472 
-0.00893068 0.00931442 0.0360904 
-0.00875878 -3.04484e-05 0.0427239 
-0.00880402 0.0015589 0.0449999 
-0.00877196 2.75426e-05 0.0362644 
-0.00889307 0.00934207 0.0498996 
-0.00227374 -3.68374e-05 0.0362496 
3.65614e-07 0.00156116 0.0361964 
0.00893134 0.00931364 0.0360904 
0.000754132 0.00939506 0.0375026 
-0.000755759 0.00939441 0.0375016 
-0.00749248 0.00939387 0.0375017 
-0.00749653 0.00939482 0.0442468 
-0.00224399 -7.46945e-05 0.0427556 
-0.00875771 -2.8976e-05 0.0472719 
-0.00870937 -1.03085e-05 0.0499394 
3.6521e-07 0.00148863 0.0449999 
-0.00226229 -8.37643e-05 0.0472627 
-0.00786078 0.00935531 0.0521914 
-0.00725847 0.00938779 0.0506892 
-0.00749183 0.00939482 0.0457494 
-0.00781816 -3.97311e-05 0.0519178 
0.00227022 -3.43831e-05 0.0362488 
0.00224823 -7.64219e-05 0.0427521 
0.00878596 0.00934815 0.0505712 
0.00880933 0.00156462 0.0449999 
0.0087589 -2.87572e-05 0.0427279 
0.0087626 1.08415e-05 0.0362659 
0.00749838 0.00939387 0.0375069 
0.00749272 0.009395 0.0442506 
0.000734002 0.00938994 0.0410768 
-0.000730475 0.0093919 0.0410801 
0.000916392 0.00144249 0.0376726 
-0.00733286 0.00144309 0.0376719 
-0.000916098 0.00144219 0.0376728 
-0.00392264 0.00939035 0.0457334 
-0.00394457 0.00940043 0.0442538 
-0.00733197 0.00144273 0.0440798 
0.00226307 -8.37643e-05 0.0472627 
3.65234e-07 0.0015589 0.053804 
-0.00226825 -3.64761e-05 0.0537462 
-0.00569195 1.10341e-05 0.0536039 
-0.0053398 0.00935519 0.0538195 
-0.00497216 0.00939274 0.0524379 
-0.00714052 0.00143117 0.0504423 
-0.00509042 0.0014323 0.0522285 
-0.0073322 0.00144351 0.0459198 
0.00867492 -6.99964e-06 0.0503185 
0.00749749 0.00939482 0.0457537 
0.00686866 0.00935215 0.0531029 
0.00736529 0.00939369 0.0503268 
0.00707507 -1.88821e-05 0.0527692 
0.008757 -2.97773e-05 0.0472718 
0.00733322 0.00144219 0.0376728 
0.00392336 0.00939035 0.0442666 
0.00733107 0.00144166 0.0440803 
1.48399e-05 0.00943774 0.0419425 
0.00205708 0.00938672 0.041555 
0.000913617 0.00144046 0.0409246 
-0.00270712 0.00938368 0.041939 
-0.000909494 0.00144207 0.0409267 
0.00267535 0.00142789 0.0417134 
-0.0030452 0.00141972 0.0419565 
-0.00337487 0.00939083 0.0471853 
-0.00297522 0.00943679 0.045703 
-0.00411481 0.00143343 0.0459591 
-0.00288659 0.00943518 0.0439947 
-0.0040732 0.00144213 0.0440899 
0.00484311 -1.70612e-05 0.0537172 
0.00226897 -3.64764e-05 0.0537462 
0.00473004 0.00935137 0.0538999 
-0.000753554 0.00939471 0.0524973 
0.000749809 0.00939506 0.0524924 
-0.000916344 0.00144303 0.0523282 
-0.00267529 0.00142652 0.0482869 
-0.000913103 0.00144011 0.0490755 
0.00392353 0.00938994 0.0457336 
0.00733232 0.00144285 0.0459201 
0.00534445 0.00938582 0.0523557 
0.00660825 0.00141263 0.0511691 
0.00730997 0.00143552 0.0495814 
0.00303841 0.00943363 0.0446528 
0.00337565 0.00939083 0.0428147 
0.00411546 0.00143361 0.044041 
-0.00178468 0.0094341 0.0424965 
-0.000970155 0.010885 0.0421677 
0.00102556 0.0108948 0.04215 
0.00207764 0.00943434 0.0426755 
-0.00205636 0.00938672 0.0484449 
-0.00179172 0.00943351 0.0475512 
-0.00300938 0.0108942 0.0452787 
-0.00187093 0.0109067 0.0474113 
-0.00245523 0.0108962 0.0432686 
-0.000733049 0.00939035 0.048923 
0.000734002 0.00938994 0.0489232 
0.000915562 0.00144356 0.052327 
0.00344527 0.00938672 0.0470568 
0.00254625 0.00943661 0.0467985 
0.00407588 0.00144011 0.0459135 
0.00492483 0.00143731 0.0522635 
0.00328731 0.00142652 0.0476757 
0.00299925 0.0108972 0.0446448 
-0.000723478 0.0108948 0.0428776 
0.000984775 0.0108881 0.0430663 
0.00199962 0.0108969 0.044086 
0.00234574 0.0108867 0.0431792 
0.000359715 0.0108997 0.0479683 
0.00052098 0.00943428 0.0480304 
-0.00196719 0.0108897 0.0440769 
-0.00215316 0.0108865 0.0454204 
-0.00107014 0.0108836 0.046981 
0.00218564 0.00939083 0.0483753 
0.000959386 0.00143349 0.0491151 
0.00233877 0.010885 0.0469553 
0.00205129 0.0108696 0.0458244 
0.000721602 0.00943357 0.0429897 
-0.000697705 0.0094316 0.0430164 
-0.00181931 0.00943756 0.043879 
0.00215489 0.00941843 0.0445642 
0.000826939 0.0108915 0.0470192 
-0.00208646 0.00943106 0.0452687 
-0.00146478 0.00942922 0.0465517 
-1.12074e-05 0.00943017 0.0471171 
0.00144845 0.00942922 0.0465676 
0.00129771 0.00939077 0.0437883 
-0.000155725 0.00938839 0.0432341 
-0.0017404 0.00938857 0.0444136 
0.00174111 0.00938857 0.0455863 
-0.001297 0.00939077 0.0462116 
0.000156458 0.00938839 0.0467659 
0.0015263 0.00191247 0.0440824 
-0.000860488 0.00191301 0.043565 
-0.00152558 0.00191253 0.0459175 
0.000861216 0.00191313 0.046435 
0.0021581 0.0176027 0.0124819 
0.00298989 0.0177127 0.0142741 
0.00306308 0.0204132 0.0144862 
0.00217134 0.0204132 0.0116144 
0.00247198 0.0175376 0.010274 
0.00277877 0.0174147 0.0146438 
0.00441891 0.017713 0.0154585 
0.00501293 0.0204132 0.0156416 
0.00361776 0.0204132 0.00897807 
0.00600034 0.0204132 0.0082078 
0.00409746 0.0177128 0.00874233 
0.00416732 0.0174149 0.00827724 
0.00593394 0.017415 0.016176 
0.00659871 0.0174132 0.00796616 
0.00658101 0.0177191 0.0157521 
0.00675505 0.0204132 0.0157164 
0.00838292 0.0204132 0.00897807 
0.00583422 0.0177193 0.00820678 
0.00775915 0.0177081 0.00864684 
0.00836307 0.0175937 0.0150502 
0.00984442 0.0174136 0.013442 
0.0084961 0.0174137 0.00874001 
0.0089376 0.0204132 0.0144862 
0.00901079 0.0177127 0.00972587 
0.00982934 0.0204132 0.0116144 
0.00923872 0.0177129 0.0139359 
0.00996715 0.0174139 0.0108637 
0.00983983 0.0177143 0.0117901 
-0.00982863 0.0204132 0.0116144 
-0.0098232 0.0175021 0.011108 
-0.00897002 0.0175354 0.00949794 
-0.0083822 0.0204132 0.00897807 
-0.00893688 0.0204132 0.0144862 
-0.00971246 0.0177176 0.0127434 
-0.00306237 0.0204132 0.0144862 
-0.00361705 0.0204132 0.00897807 
-0.0098052 0.0174139 0.0135763 
-0.00816381 0.0174136 0.0154889 
-0.0056591 0.0174139 0.0161123 
-0.0079025 0.0177128 0.00874233 
-0.00744164 0.0174135 0.00815576 
-0.00616574 0.0177193 0.00820678 
-0.00599962 0.0204132 0.0082078 
-0.00698703 0.0204132 0.0156416 
-0.007581 0.017713 0.0154585 
-0.00901008 0.0177127 0.0142741 
-0.00216013 0.0177143 0.0117901 
-0.00276118 0.0177129 0.0139359 
-0.00375634 0.0177131 0.0150335 
-0.00524491 0.0204132 0.0157164 
-0.00217056 0.0204132 0.0116144 
-0.00424081 0.0177081 0.00864684 
-0.00298917 0.0177127 0.00972587 
-0.00345307 0.0174134 0.0151982 
-0.0054189 0.0177191 0.0157521 
-0.00479966 0.0174143 0.00804436 
-0.00191706 0.0174154 0.0128797 
-0.00253356 0.017414 0.00976121 
3 2 0 12
3 12 0 4
3 0 2 8
3 8 2 10
3 10 2 13
3 2 12 13
3 21 4 22
3 22 4 0
3 21 24 4
3 25 4 24
3 27 4 25
3 8 10 13
3 8 13 27
3 29 12 30
3 12 31 30
3 4 31 12
3 13 32 33
3 13 12 32
3 32 12 34
3 12 29 34
3 4 25 24
3 4 27 25
3 4 24 31
3 25 27 37
3 37 27 13
3 0 39 40
3 8 39 0
3 27 41 42
3 27 42 8
3 25 41 27
3 22 42 21
3 42 41 21
3 44 24 21
3 45 21 46
3 46 21 41
3 45 44 21
3 76 74 22
3 74 42 22
3 0 76 22
3 0 40 76
3 25 50 41
3 13 33 51
3 37 13 51
3 52 29 30
3 34 29 52
3 31 55 30
3 30 55 54
3 30 54 52
3 55 31 57
3 24 57 31
3 32 34 58
3 59 32 60
3 33 32 59
3 32 58 60
3 33 59 51
3 34 62 58
3 62 34 52
3 57 24 65
3 65 24 44
3 70 25 37
3 67 25 70
3 25 67 50
3 68 37 51
3 68 70 37
3 39 8 74
3 50 46 41
3 74 8 42
3 65 44 45
3 45 78 79
3 45 46 78
3 65 45 93
3 79 93 45
3 78 46 96
3 46 67 96
3 50 67 46
3 68 51 86
3 59 86 51
3 52 54 88
3 54 89 88
3 54 86 90
3 54 90 89
3 54 68 86
3 54 55 68
3 68 55 92
3 92 55 91
3 55 93 91
3 55 57 93
3 62 94 58
3 58 94 95
3 58 95 60
3 59 60 86
3 60 90 86
3 60 95 90
3 88 62 52
3 94 62 88
3 57 65 93
3 96 67 70
3 96 70 68
3 92 96 68
3 97 39 74
3 98 39 97
3 100 40 101
3 40 102 101
3 40 104 102
3 40 39 104
3 40 105 76
3 40 100 105
3 92 79 78
3 78 96 92
3 91 79 92
3 93 79 91
3 74 76 97
3 97 76 105
3 94 88 89
3 95 89 90
3 94 89 95
3 98 97 108
3 122 98 110
3 111 98 122
3 111 39 98
3 110 98 108
3 112 39 111
3 104 39 112
3 100 114 115
3 100 101 114
3 101 117 114
3 102 117 101
3 102 104 117
3 100 118 105
3 119 105 118
3 120 105 119
3 97 105 120
3 108 97 120
3 110 108 120
3 122 117 111
3 123 122 110
3 123 110 120
3 111 117 112
3 104 112 117
3 100 115 118
3 122 114 117
3 115 119 118
3 119 123 120
3 115 123 119
3 114 122 123
3 115 114 123
3 127 128 129
3 127 130 128
3 127 129 131
3 127 132 130
3 160 132 127
3 134 160 127
3 134 127 136
3 137 127 138
3 138 127 131
3 137 136 127
3 132 188 128
3 132 128 130
3 188 129 128
3 129 140 141
3 131 129 141
3 188 257 129
3 143 140 129
3 257 143 129
3 131 141 147
3 144 131 147
3 132 160 188
3 160 148 149
3 160 149 257
3 160 257 188
3 134 148 160
3 134 176 181
3 152 134 181
3 153 134 152
3 134 153 148
3 154 134 136
3 155 134 154
3 176 134 155
3 160 136 157
3 160 154 136
3 159 136 137
3 160 136 159
3 136 160 157
3 159 137 138
3 162 129 138
3 159 138 129
3 143 141 140
3 143 147 141
3 257 164 199
3 143 257 199
3 181 164 257
3 181 257 149
3 143 166 167
3 143 167 147
3 143 199 166
3 169 131 144
3 144 147 167
3 169 144 167
3 170 131 171
3 131 169 171
3 129 131 170
3 129 138 131
3 129 162 138
3 153 149 148
3 153 152 149
3 152 181 149
3 181 176 173
3 176 204 177
3 176 177 173
3 181 173 178
3 181 178 164
3 154 179 155
3 179 154 160
3 155 179 181
3 155 181 244
3 186 157 241
3 160 157 186
3 157 160 186
3 186 185 157
3 149 160 186
3 179 160 149
3 188 160 159
3 188 159 129
3 186 160 188
3 193 162 129
3 193 189 162
3 188 162 185
3 188 193 162
3 162 193 129
3 193 188 129
3 164 194 195
3 164 177 194
3 173 177 164
3 178 173 164
3 164 195 199
3 199 204 169
3 199 169 167
3 199 167 166
3 194 199 195
3 194 204 199
3 169 204 197
3 169 199 171
3 197 199 169
3 193 129 170
3 143 193 170
3 171 143 170
3 171 201 143
3 199 201 171
3 202 155 244
3 181 155 202
3 155 181 176
3 204 194 177
3 204 176 206
3 176 181 206
3 181 179 149
3 244 181 209
3 209 208 244
3 181 149 209
3 241 157 228
3 149 186 241
3 149 241 208
3 186 188 185
3 209 149 208
3 193 143 189
3 162 189 217
3 162 217 216
3 162 216 243
3 185 162 243
3 219 199 197
3 204 199 197
3 199 219 197
3 219 201 199
3 143 201 189
3 201 219 189
3 249 202 244
3 181 202 209
3 206 181 209
3 225 204 206
3 204 225 199
3 206 164 225
3 206 209 164
3 244 208 241
3 185 243 157
3 228 157 243
3 208 228 244
3 241 228 208
3 241 208 244
3 189 232 217
3 189 219 232
3 254 216 217
3 232 254 217
3 201 219 199
3 201 249 219
3 225 201 199
3 164 209 202
3 164 202 249
3 225 164 201
3 201 164 249
3 241 228 157
3 157 228 243
3 244 228 241
3 232 249 254
3 232 244 249
3 249 244 232
3 219 249 232
3 243 216 254
3 243 241 157
3 249 244 254
3 244 241 256
3 241 243 256
3 256 243 257
3 257 243 258
3 243 254 258
3 259 244 256
3 254 244 259
3 258 254 259
3 259 256 257
3 259 257 258
3 262 260 263
3 260 264 263
3 260 265 264
3 265 260 262
3 267 265 262
3 268 262 263
3 269 267 262
3 269 262 268
3 263 264 268
3 264 271 268
3 264 265 271
3 271 265 273
3 265 272 273
3 272 265 267
3 276 267 269
3 268 271 269
3 269 273 276
3 271 273 269
3 272 280 281
3 272 279 280
3 273 272 281
3 279 272 267
3 282 279 267
3 276 282 267
3 273 281 276
3 276 281 284
3 276 284 282
3 286 280 279
3 281 280 286
3 286 279 282
3 284 286 282
3 281 286 284
3 288 290 291
3 292 293 288
3 293 290 288
3 294 292 288
3 295 294 288
3 295 288 291
3 293 297 290
3 297 298 290
3 290 298 300
3 291 300 302
3 290 300 291
3 295 291 302
3 303 297 292
3 297 293 292
3 294 303 292
3 306 308 294
3 294 308 303
3 310 306 294
3 295 310 294
3 302 315 295
3 315 312 295
3 295 312 310
3 298 308 300
3 300 308 315
3 300 315 302
3 298 297 303
3 312 306 310
3 308 298 303
3 315 308 312
3 312 308 306
