ply
format ascii 1.0
comment SOLIDWORKS generated,length unit = millimeters
element vertex 102
property float x
property float y
property float z
element face 198
property list uchar int vertex_indices
end_header
-0.0316359 -0.000578733 0.00597307 
-0.025981 0.0757697 -0.00508223 
-0.0315975 -0.0019865 0.00115293 
-0.0175104 -0.0979076 0.0516662 
-0.0252704 0.0820651 0.00519704 
-0.0172547 -0.0907003 0.063082 
-0.0192292 0.0972606 0.0505884 
-0.0184487 0.0920155 0.0583932 
-0.0280109 0.0417843 -0.0063964 
-0.0244953 0.0858923 -0.00183273 
-0.0246502 0.076668 -0.00693213 
-0.0170537 -0.0955248 0.0221212 
-0.0168042 -0.0919061 0.00629548 
-0.0168122 -0.0875329 -0.00120645 
-0.00363682 -0.0835859 -0.0246063 
-0.0165327 -0.0822363 -0.00511811 
-0.0166321 -0.098554 0.0547339 
-0.0160131 -0.0996286 0.0493014 
-0.0235558 0.0911663 0.00460792 
-0.0218221 0.0954417 0.0217564 
-0.0230261 0.0928969 0.00987686 
-0.0154717 -0.0907063 0.0651901 
-0.0167672 0.0902522 0.0643322 
-0.014617 -0.0934417 0.0645 
-0.0160455 0.0932093 0.0636169 
-0.0169948 0.0993629 0.0541148 
-0.0181926 0.0995179 0.0438142 
-0.00150015 -0.0458698 -0.0259248 
-0.021325 0.0909269 0.000979802 
-0.0227328 0.0854345 -0.00412033 
-0.0227611 0.0801744 -0.00690954 
-0.00342956 -0.102598 -0.0089643 
-0.00361677 -0.101158 -0.0126103 
-0.00321509 -0.087766 -0.0238844 
-0.000867829 -0.0825485 -0.0258702 
-0.0140171 -0.100091 0.0560269 
-4.10844e-05 -0.10399 0.00569088 
-1.72733e-05 -0.103743 -0.0091993 
-0.0206576 0.0946679 0.00953798 
-0.0190668 0.0976971 0.0246275 
-0.014422 0.0912765 0.0656897 
-0.0129879 -0.0924958 0.0657119 
-0.00932387 -0.0999826 0.0584892 
-0.0146231 0.100168 0.0557349 
-0.0125667 0.0937125 0.0651685 
0.0162184 0.100285 0.0458698 
-1.59471e-05 0.0984961 0.0270818 
-0.000833771 0.08026 -0.00732172 
0.0229591 0.0779014 -0.00739904 
0.00184279 -0.0840023 -0.0255249 
0.00191744 -0.0455199 -0.0256594 
-0.000337323 0.0865616 -0.00416328 
-0.000314131 0.0946153 0.00757466 
-0.000173406 0.090995 0.000576784 
3.18097e-05 -0.0994514 -0.0171612 
-0.000626994 -0.0879747 -0.0249616 
0.0162301 -0.0995375 0.0515841 
0.0125057 -0.100188 0.0568941 
0.00119059 -0.100301 0.0586231 
0.00360213 -0.101195 -0.0126276 
0.00349477 -0.102716 -0.00802934 
-0.000112569 0.0928085 0.0659622 
-0.000505639 -0.0929453 0.0659531 
0.000469602 -0.0966559 0.0630784 
-0.00449439 0.100426 0.0581191 
-0.00161673 0.0974711 0.0623073 
0.0155509 0.1002 0.0546726 
0.0192688 0.0984936 0.0449417 
0.019802 0.0970111 0.020914 
0.00994155 0.100035 0.0583408 
0.022377 0.0833552 -0.00552611 
0.0248167 0.0743775 -0.0071557 
0.0245152 0.0817026 -0.00505142 
0.00381034 -0.0829662 -0.0244493 
0.003076 -0.0879729 -0.0239787 
0.0280151 0.0420423 -0.0063496 
0.0223143 0.08825 -0.0019332 
0.0213426 0.0943331 0.00894201 
0.0214829 0.0917947 0.00268413 
0.0170332 -0.0968023 0.030322 
0.0175851 -0.0974071 0.0519846 
0.0158049 -0.0994163 0.0549703 
0.0131387 -0.0940629 0.0646832 
0.0165582 -0.0851322 -0.00387274 
0.0169555 -0.0916029 0.00556283 
0.0135396 0.0926721 0.0656879 
0.0134248 -0.091927 0.0657313 
0.0171295 0.0990672 0.0543052 
0.0153969 0.0929056 0.0645563 
0.0185559 0.0946019 0.0566173 
0.0206709 0.0936918 0.0433083 
0.0227078 0.0937356 0.01434 
0.0260343 0.0752976 -0.00503085 
0.0247294 0.0857401 -0.00123169 
0.0316158 -0.00186086 0.00117971 
0.0238692 0.0904014 0.00436824 
0.0315898 -0.000558518 0.00621423 
0.0176072 -0.0938476 0.0584485 
0.0157184 -0.0917796 0.0649125 
0.0167349 0.0901289 0.0644319 
0.0254479 0.0811805 0.0035006 
0.0171343 -0.0892712 0.0636144 
3 1 2 0
3 0 2 3
3 4 1 0
3 5 0 3
3 4 0 6
3 5 7 0
3 7 6 0
3 8 2 1
3 1 4 9
3 8 1 10
3 10 1 9
3 11 3 2
3 12 2 13
3 11 2 12
3 2 14 15
3 14 2 8
3 13 2 15
3 16 5 3
3 17 16 3
3 11 17 3
3 18 9 4
3 6 19 4
3 19 20 4
3 20 18 4
3 5 21 22
3 7 5 22
3 5 23 21
3 5 16 23
3 24 6 7
3 25 6 24
3 6 26 19
3 26 6 25
3 7 22 24
3 8 10 27
3 14 8 27
3 28 29 9
3 18 28 9
3 9 29 10
3 27 10 30
3 10 29 30
3 31 11 12
3 17 11 31
3 32 31 12
3 13 32 12
3 32 13 33
3 13 15 33
3 15 14 33
3 14 27 34
3 33 14 34
3 17 35 16
3 35 23 16
3 35 17 36
3 36 17 37
3 31 37 17
3 18 20 38
3 18 38 28
3 20 19 38
3 38 19 39
3 26 39 19
3 40 21 41
3 22 21 40
3 21 23 41
3 22 40 24
3 23 42 41
3 35 42 23
3 43 24 44
3 43 25 24
3 40 44 24
3 25 43 26
3 26 45 46
3 43 45 26
3 39 26 46
3 27 47 48
3 47 27 30
3 49 27 50
3 50 27 48
3 34 27 49
3 29 28 51
3 28 52 53
3 28 53 51
3 28 38 52
3 30 29 51
3 47 30 51
3 31 32 37
3 54 32 33
3 54 37 32
3 55 54 33
3 33 34 55
3 34 49 55
3 35 36 42
3 56 36 37
3 57 36 56
3 36 57 58
3 58 42 36
3 54 59 37
3 60 56 37
3 59 60 37
3 38 39 52
3 39 46 52
3 61 44 40
3 61 40 41
3 41 62 61
3 42 63 41
3 41 63 62
3 58 63 42
3 45 43 64
3 43 44 64
3 61 65 44
3 65 64 44
3 66 67 45
3 45 67 68
3 46 45 68
3 66 45 69
3 69 45 64
3 52 46 68
3 51 70 47
3 47 70 48
3 48 71 50
3 48 72 71
3 72 48 70
3 50 73 49
3 55 49 74
3 49 73 74
3 50 75 73
3 71 75 50
3 51 76 70
3 51 53 76
3 52 68 77
3 53 52 78
3 52 77 78
3 76 53 78
3 74 54 55
3 54 74 59
3 79 80 56
3 81 57 56
3 79 56 60
3 81 56 80
3 81 82 57
3 82 58 57
3 58 82 63
3 83 84 59
3 59 84 60
3 83 59 74
3 60 84 79
3 85 61 62
3 65 61 85
3 62 86 85
3 62 82 86
3 62 63 82
3 64 65 69
3 69 65 85
3 88 66 69
3 89 90 67
3 90 91 67
3 67 66 89
3 91 68 67
3 68 91 77
3 85 88 69
3 76 72 70
3 92 75 71
3 92 71 72
3 72 76 93
3 93 92 72
3 73 94 83
3 94 73 75
3 74 73 83
3 94 75 92
3 76 78 95
3 93 76 95
3 95 77 91
3 77 95 78
3 79 94 80
3 84 94 79
3 94 96 80
3 97 80 96
3 80 97 81
3 98 81 97
3 82 81 98
3 82 98 86
3 84 83 94
3 99 85 98
3 86 98 85
3 88 85 99
3 88 89 66
3 89 88 99
3 89 99 96
3 90 89 96
3 90 96 100
3 90 100 95
3 91 90 95
3 94 92 100
3 92 93 100
3 93 95 100
3 94 100 96
3 99 101 96
3 101 97 96
3 101 98 97
3 98 101 99
